<svg xmlns="http://www.w3.org/2000/svg" viewBox="0 0 64 64" role="img" aria-label="カリフラワー">
<circle cx="19.5" cy="32" r="8.5" fill="#F2EBD8"/>
<circle cx="44.5" cy="32" r="8.5" fill="#F2EBD8"/>
<circle cx="24" cy="39" r="8" fill="#F2EBD8"/>
<circle cx="40" cy="39" r="8" fill="#F2EBD8"/>
<circle cx="32" cy="25" r="10.5" fill="#F7F1E0"/>
<circle cx="32" cy="36" r="9.5" fill="#F7F1E0"/>
<circle cx="25.5" cy="26.5" r="1.9" fill="#E0D6BC"/>
<circle cx="38.5" cy="25" r="1.9" fill="#E0D6BC"/>
<circle cx="31.5" cy="19.5" r="1.7" fill="#E0D6BC"/>
<circle cx="18" cy="30.5" r="1.8" fill="#E0D6BC"/>
<circle cx="46" cy="31" r="1.8" fill="#E0D6BC"/>
<circle cx="27" cy="34" r="1.7" fill="#DDD2B6"/>
<circle cx="37" cy="35" r="1.7" fill="#DDD2B6"/>
<circle cx="32" cy="40.5" r="1.7" fill="#DDD2B6"/>
<path d="M13 27 C9.5 34 9.5 44 14 51.5 C19 49.5 22.5 45.5 24.5 40.5 C19.5 37.5 15.5 33 13 27 Z" fill="#4E9C3E"/>
<path d="M51 27 C54.5 34 54.5 44 50 51.5 C45 49.5 41.5 45.5 39.5 40.5 C44.5 37.5 48.5 33 51 27 Z" fill="#3F8534"/>
<path d="M20 47 C24 51.5 28 53.5 32 54 C36 53.5 40 51.5 44 47 C40 49.5 36 50.5 32 50.5 C28 50.5 24 49.5 20 47 Z" fill="#55A345"/>
</svg>