<svg xmlns="http://www.w3.org/2000/svg" viewBox="0 0 64 64" role="img" aria-label="大豆">
<circle cx="24.9" cy="28.8" r="7" fill="#D9BC5F"/><circle cx="23.5" cy="27" r="7" fill="#EAD07C"/><ellipse cx="21.0" cy="24.5" rx="2.4" ry="1.5" fill="#F5E4A0" transform="rotate(-40 21.0 24.5)"/><ellipse cx="27.0" cy="28.5" rx="1.1" ry="2.4" fill="#B89440" transform="rotate(18 27.0 28.5)"/>
<circle cx="41.9" cy="28.8" r="7" fill="#D9BC5F"/><circle cx="40.5" cy="27" r="7" fill="#EAD07C"/><ellipse cx="38.0" cy="24.5" rx="2.4" ry="1.5" fill="#F5E4A0" transform="rotate(-40 38.0 24.5)"/><ellipse cx="44.0" cy="28.5" rx="1.1" ry="2.4" fill="#B89440" transform="rotate(18 44.0 28.5)"/>
<circle cx="33.4" cy="43.3" r="7" fill="#D9BC5F"/><circle cx="32" cy="41.5" r="7" fill="#EAD07C"/><ellipse cx="29.5" cy="39.0" rx="2.4" ry="1.5" fill="#F5E4A0" transform="rotate(-40 29.5 39.0)"/><ellipse cx="35.5" cy="43.0" rx="1.1" ry="2.4" fill="#B89440" transform="rotate(18 35.5 43.0)"/>
</svg>