<svg xmlns="http://www.w3.org/2000/svg" viewBox="0 0 64 64" role="img" aria-label="ハクサイ">
<path d="M14 24 Q15.5 15.5 21 17 Q22.5 9.5 28 13 Q32 6.5 36 13 Q41.5 9.5 43 17 Q48.5 15.5 50 24 Q42 29 32 29 Q22 29 14 24 Z" fill="#7CAF4C"/>
<path d="M17 26.5 Q19 19.5 23.5 21 Q26 14.5 30.5 17.5 Q34 12 37 17.5 Q40.5 15 42 21 Q45.5 20 47 26.5 Q40 31 32 31 Q24 31 17 26.5 Z" fill="#8FBF5E"/>
<path d="M21 24 C19.5 34 19.5 45 22.5 52.5 C25 56.8 28 58.2 32 58.2 C36 58.2 39 56.8 41.5 52.5 C44.5 45 44.5 34 43 24 Q37.5 27.5 32 27.5 Q26.5 27.5 21 24 Z" fill="#F5F1DC"/>
<path d="M32 57.5 C31.4 47 31.4 34 32 22" stroke="#FFFDF2" stroke-width="3.2" stroke-linecap="round" fill="none"/>
<path d="M24.5 55 C22.8 46 22.6 36 23.8 25.5" stroke="#FFFDF2" stroke-width="2.6" stroke-linecap="round" fill="none"/>
<path d="M39.5 55 C41.2 46 41.4 36 40.2 25.5" stroke="#FFFDF2" stroke-width="2.6" stroke-linecap="round" fill="none"/>
</svg>