<svg xmlns="http://www.w3.org/2000/svg" viewBox="0 0 64 64" role="img" aria-label="カキ">
<defs><clipPath id="kk"><path d="M32 22 C41 22 47.5 27 47.5 36 C47.5 45.5 41 51.5 32 51.5 C23 51.5 16.5 45.5 16.5 36 C16.5 27 23 22 32 22 Z"/></clipPath></defs>
<path d="M32 22 C41 22 47.5 27 47.5 36 C47.5 45.5 41 51.5 32 51.5 C23 51.5 16.5 45.5 16.5 36 C16.5 27 23 22 32 22 Z" fill="#E8853B"/>
<g clip-path="url(#kk)">
<ellipse cx="39" cy="44" rx="18" ry="14" fill="#D9722A"/><ellipse cx="27" cy="34" rx="15" ry="12" fill="#E8853B"/>
<path d="M25 23 C24 32 24 42 25.5 50" stroke="#D9722A" stroke-width="1.4" fill="none" opacity="0.6"/>
<path d="M39 23 C40 32 40 42 38.5 50" stroke="#D9722A" stroke-width="1.4" fill="none" opacity="0.6"/>
</g>
<ellipse cx="25" cy="22.5" rx="7" ry="3.1" fill="#47913B" transform="rotate(-18 25 22.5)"/>
<ellipse cx="39" cy="22.5" rx="7" ry="3.1" fill="#3F8534" transform="rotate(18 39 22.5)"/>
<ellipse cx="27.5" cy="25" rx="6" ry="2.9" fill="#3F8534" transform="rotate(32 27.5 25)"/>
<ellipse cx="36.5" cy="25" rx="6" ry="2.9" fill="#47913B" transform="rotate(-32 36.5 25)"/>
<circle cx="32" cy="22" r="2.1" fill="#35702B"/>
<path d="M32 21 L32 15.5" stroke="#6B4F2E" stroke-width="2" stroke-linecap="round" fill="none"/>
</svg>