<svg xmlns="http://www.w3.org/2000/svg" viewBox="0 0 64 64" role="img" aria-label="米">
<path d="M22 57 C24 47 26.5 39 31 32 C35.5 25 41 20 48.5 16.5" stroke="#B8973A" stroke-width="2.2" stroke-linecap="round" fill="none"/>
<path d="M22 57 C20 49 18.5 42 15.5 35.5" stroke="#7CAF4C" stroke-width="1.9" stroke-linecap="round" fill="none"/>
<path d="M24 48 C26.5 43.5 28 39.5 28.5 34.5" stroke="#7CAF4C" stroke-width="1.7" stroke-linecap="round" fill="none"/>
<ellipse cx="28.9" cy="32.8" rx="2.2" ry="3.2" fill="#D9A93C" transform="rotate(-40 28.1 31.8)"/><ellipse cx="28.1" cy="31.8" rx="2.2" ry="3.2" fill="#E8C24A" transform="rotate(-40 28.1 31.8)"/><ellipse cx="32.7" cy="37.2" rx="2.2" ry="3.2" fill="#D9A93C" transform="rotate(-40 31.9 36.2)"/><ellipse cx="31.9" cy="36.2" rx="2.2" ry="3.2" fill="#E8C24A" transform="rotate(-40 31.9 36.2)"/><ellipse cx="31.4" cy="29.3" rx="2.2" ry="3.2" fill="#D9A93C" transform="rotate(-40 30.6 28.3)"/><ellipse cx="30.6" cy="28.3" rx="2.2" ry="3.2" fill="#E8C24A" transform="rotate(-40 30.6 28.3)"/><ellipse cx="35.2" cy="33.7" rx="2.2" ry="3.2" fill="#D9A93C" transform="rotate(-40 34.4 32.7)"/><ellipse cx="34.4" cy="32.7" rx="2.2" ry="3.2" fill="#E8C24A" transform="rotate(-40 34.4 32.7)"/><ellipse cx="33.9" cy="26.1" rx="2.2" ry="3.2" fill="#D9A93C" transform="rotate(-42 33.1 25.1)"/><ellipse cx="33.1" cy="25.1" rx="2.2" ry="3.2" fill="#E8C24A" transform="rotate(-42 33.1 25.1)"/><ellipse cx="37.7" cy="30.5" rx="2.2" ry="3.2" fill="#D9A93C" transform="rotate(-42 36.9 29.5)"/><ellipse cx="36.9" cy="29.5" rx="2.2" ry="3.2" fill="#E8C24A" transform="rotate(-42 36.9 29.5)"/><ellipse cx="36.6" cy="23.2" rx="2.2" ry="3.2" fill="#D9A93C" transform="rotate(-44 35.8 22.2)"/><ellipse cx="35.8" cy="22.2" rx="2.2" ry="3.2" fill="#E8C24A" transform="rotate(-44 35.8 22.2)"/><ellipse cx="40.6" cy="27.4" rx="2.2" ry="3.2" fill="#D9A93C" transform="rotate(-44 39.8 26.4)"/><ellipse cx="39.8" cy="26.4" rx="2.2" ry="3.2" fill="#E8C24A" transform="rotate(-44 39.8 26.4)"/><ellipse cx="39.5" cy="20.6" rx="2.2" ry="3.2" fill="#D9A93C" transform="rotate(-46 38.7 19.6)"/><ellipse cx="38.7" cy="19.6" rx="2.2" ry="3.2" fill="#E8C24A" transform="rotate(-46 38.7 19.6)"/><ellipse cx="43.7" cy="24.6" rx="2.2" ry="3.2" fill="#D9A93C" transform="rotate(-46 42.9 23.6)"/><ellipse cx="42.9" cy="23.6" rx="2.2" ry="3.2" fill="#E8C24A" transform="rotate(-46 42.9 23.6)"/><ellipse cx="42.6" cy="18.3" rx="2.2" ry="3.2" fill="#D9A93C" transform="rotate(-48 41.8 17.3)"/><ellipse cx="41.8" cy="17.3" rx="2.2" ry="3.2" fill="#E8C24A" transform="rotate(-48 41.8 17.3)"/><ellipse cx="47.0" cy="22.1" rx="2.2" ry="3.2" fill="#D9A93C" transform="rotate(-48 46.2 21.1)"/><ellipse cx="46.2" cy="21.1" rx="2.2" ry="3.2" fill="#E8C24A" transform="rotate(-48 46.2 21.1)"/><ellipse cx="45.6" cy="16.1" rx="2.2" ry="3.2" fill="#D9A93C" transform="rotate(-50 44.8 15.1)"/><ellipse cx="44.8" cy="15.1" rx="2.2" ry="3.2" fill="#E8C24A" transform="rotate(-50 44.8 15.1)"/><ellipse cx="50.0" cy="19.9" rx="2.2" ry="3.2" fill="#D9A93C" transform="rotate(-50 49.2 18.9)"/><ellipse cx="49.2" cy="18.9" rx="2.2" ry="3.2" fill="#E8C24A" transform="rotate(-50 49.2 18.9)"/>
<ellipse cx="50.3" cy="14.9" rx="2.2" ry="3.2" fill="#D9A93C" transform="rotate(-50 49.5 14)"/>
<ellipse cx="49.5" cy="14" rx="2.2" ry="3.2" fill="#E8C24A" transform="rotate(-50 49.5 14)"/>
</svg>